# xmcd CD database file
#
# Track frame offsets:
#	150
#	17533
#	30459
#	43771
#	57601
#	72139
#	85044
#	97858
#	110752
#	126490
#	140143
#	157881
#	169796
#	186688
#	200873
#	219748
#
# Disc length: 3202 seconds
#
# Revision: 0
# Processed by: cddbd v1.5.1PL2 Copyright (c) Steve Scherf et al.
# Submitted via: CDex 1.51
#
DISCID=f00c8010
DTITLE=Horace Silver Trio - Complete Blue Note Sessions with Art Blakey
DYEAR=2003
DGENRE=Jazz
TTITLE0=Horoscope (Horace-scope)
TTITLE1=Safari
TTITLE2=Thou Swell
TTITLE3=Quicksilver
TTITLE4=Eearoh
TTITLE5=Yeah
TTITLE6=Knowledge Box
TTITLE7=Prelude To A Kiss
TTITLE8=Opus De Funk
TTITLE9=Day In, Day Out
TTITLE10=I Remember You
TTITLE11=Silverware
TTITLE12=How About You
TTITLE13=Buhaina
TTITLE14=Nothing But The Soul
TTITLE15=Message From Kenya
EXTD=YEAR: 2003
EXTT0=
EXTT1=
EXTT2=
EXTT3=
EXTT4=
EXTT5=
EXTT6=
EXTT7=
EXTT8=
EXTT9=
EXTT10=
EXTT11=
EXTT12=
EXTT13=
EXTT14=
EXTT15=
PLAYORDER=
